<?xml version="1.0" standalone="no"?>
<!DOCTYPE svg PUBLIC "-//W3C//DTD SVG 20010904//EN"
 "http://www.w3.org/TR/2001/REC-SVG-20010904/DTD/svg10.dtd">
<svg version="1.0" xmlns="http://www.w3.org/2000/svg"
 width="95.000000pt" height="95.000000pt" viewBox="0 0 95.000000 95.000000"
 preserveAspectRatio="xMidYMid meet">
<metadata>
Created by potrace 1.14, written by Peter Selinger 2001-2017
</metadata>
<g transform="translate(0.000000,95.000000) scale(0.100000,-0.100000)"
fill="#000000" stroke="none">
<path d="M479 946 c-2 -3 -28 -6 -57 -7 -28 -2 -52 -5 -52 -9 0 -3 -12 -7 -27
-8 -15 -1 -29 -6 -32 -11 -3 -4 -14 -7 -24 -5 -9 1 -15 -1 -13 -5 3 -4 -9 -13
-27 -21 -43 -19 -127 -91 -127 -110 0 -5 -5 -10 -10 -10 -6 0 -15 -11 -20 -25
-5 -14 -15 -25 -21 -25 -7 0 -9 -3 -6 -7 4 -3 0 -17 -8 -30 -9 -13 -13 -23 -9
-23 4 0 1 -6 -5 -14 -6 -7 -12 -25 -13 -40 -1 -14 -5 -26 -8 -26 -3 0 -6 -43
-6 -95 -1 -52 2 -95 5 -95 4 0 8 -11 9 -25 2 -32 54 -137 81 -167 12 -12 21
-24 21 -28 0 -14 159 -125 172 -119 9 3 57 -14 54 -20 -3 -4 11 -6 29 -6 19 1
40 -2 47 -6 6 -4 21 -3 31 3 15 7 18 7 12 -2 -6 -9 -3 -9 13 -1 15 8 22 8 25
-2 4 -8 8 -8 14 -2 4 6 23 11 42 12 18 1 39 8 47 14 8 6 14 8 14 5 0 -12 115
53 148 83 17 16 32 27 34 25 2 -2 12 12 23 31 10 19 25 35 33 35 9 0 13 3 9 6
-3 3 6 28 19 55 14 27 26 58 27 69 1 11 5 20 10 20 5 0 7 6 4 13 -3 8 -1 20 3
28 6 8 4 16 -3 21 -8 5 -9 11 -2 16 11 8 15 102 4 102 -3 0 -6 10 -5 23 1 12
-6 41 -16 65 -9 23 -14 42 -10 42 4 0 2 4 -4 8 -5 4 -21 25 -34 47 -27 46 -99
121 -112 118 -4 -2 -8 1 -8 7 0 10 -60 45 -72 42 -5 -1 -8 3 -8 9 0 5 -4 7
-10 4 -5 -3 -10 -1 -10 4 0 6 -13 11 -30 11 -16 0 -30 5 -30 11 0 6 -6 9 -14
6 -8 -3 -29 -2 -45 3 -22 6 -31 5 -31 -3 0 -9 -3 -8 -8 1 -5 7 -10 10 -13 8z"/>
</g>
</svg>
